<mxfile host="Electron" agent="Mozilla/5.0 (X11; Linux x86_64) AppleWebKit/537.36 (KHTML, like Gecko) draw.io/24.7.17 Chrome/128.0.6613.36 Electron/32.0.1 Safari/537.36" version="24.7.17">
  <diagram name="PÃ¡gina-1" id="k3FH6h8X01xMCN_LuNeU">
    <mxGraphModel dx="1114" dy="663" grid="1" gridSize="10" guides="1" tooltips="1" connect="1" arrows="1" fold="1" page="1" pageScale="1" pageWidth="827" pageHeight="1169" math="0" shadow="0">
      <root>
        <mxCell id="0" />
        <mxCell id="1" parent="0" />
        <mxCell id="7-RdfV6hXrTTN9gbZNvn-3" value="1" style="whiteSpace=wrap;html=1;aspect=fixed;" vertex="1" parent="1">
          <mxGeometry x="220" y="210" width="40" height="40" as="geometry" />
        </mxCell>
        <mxCell id="7-RdfV6hXrTTN9gbZNvn-9" value="4" style="whiteSpace=wrap;html=1;aspect=fixed;" vertex="1" parent="1">
          <mxGeometry x="220" y="330" width="40" height="40" as="geometry" />
        </mxCell>
        <mxCell id="7-RdfV6hXrTTN9gbZNvn-10" value="2" style="whiteSpace=wrap;html=1;aspect=fixed;" vertex="1" parent="1">
          <mxGeometry x="220" y="250" width="40" height="40" as="geometry" />
        </mxCell>
        <mxCell id="7-RdfV6hXrTTN9gbZNvn-11" value="3" style="whiteSpace=wrap;html=1;aspect=fixed;" vertex="1" parent="1">
          <mxGeometry x="220" y="290" width="40" height="40" as="geometry" />
        </mxCell>
        <mxCell id="7-RdfV6hXrTTN9gbZNvn-12" value="5" style="whiteSpace=wrap;html=1;aspect=fixed;" vertex="1" parent="1">
          <mxGeometry x="350" y="210" width="40" height="40" as="geometry" />
        </mxCell>
        <mxCell id="7-RdfV6hXrTTN9gbZNvn-13" value="8" style="whiteSpace=wrap;html=1;aspect=fixed;" vertex="1" parent="1">
          <mxGeometry x="350" y="330" width="40" height="40" as="geometry" />
        </mxCell>
        <mxCell id="7-RdfV6hXrTTN9gbZNvn-14" value="6" style="whiteSpace=wrap;html=1;aspect=fixed;" vertex="1" parent="1">
          <mxGeometry x="350" y="250" width="40" height="40" as="geometry" />
        </mxCell>
        <mxCell id="7-RdfV6hXrTTN9gbZNvn-15" value="7" style="whiteSpace=wrap;html=1;aspect=fixed;" vertex="1" parent="1">
          <mxGeometry x="350" y="290" width="40" height="40" as="geometry" />
        </mxCell>
        <mxCell id="7-RdfV6hXrTTN9gbZNvn-16" value="Soy" style="text;html=1;align=center;verticalAlign=middle;whiteSpace=wrap;rounded=0;" vertex="1" parent="1">
          <mxGeometry x="220" y="150" width="60" height="30" as="geometry" />
        </mxCell>
        <mxCell id="7-RdfV6hXrTTN9gbZNvn-17" value="Feliz" style="text;html=1;align=center;verticalAlign=middle;whiteSpace=wrap;rounded=0;" vertex="1" parent="1">
          <mxGeometry x="340" y="150" width="60" height="30" as="geometry" />
        </mxCell>
        <mxCell id="7-RdfV6hXrTTN9gbZNvn-20" value="Soy feliz" style="text;html=1;align=center;verticalAlign=middle;whiteSpace=wrap;rounded=0;" vertex="1" parent="1">
          <mxGeometry x="20" y="260" width="60" height="30" as="geometry" />
        </mxCell>
        <mxCell id="7-RdfV6hXrTTN9gbZNvn-21" value="&lt;b&gt;Embedding&lt;/b&gt;" style="text;html=1;align=center;verticalAlign=middle;whiteSpace=wrap;rounded=0;" vertex="1" parent="1">
          <mxGeometry x="110" y="240" width="60" height="30" as="geometry" />
        </mxCell>
        <mxCell id="7-RdfV6hXrTTN9gbZNvn-22" value="" style="endArrow=classic;html=1;rounded=0;" edge="1" parent="1">
          <mxGeometry width="50" height="50" relative="1" as="geometry">
            <mxPoint x="100" y="280" as="sourcePoint" />
            <mxPoint x="180" y="280" as="targetPoint" />
          </mxGeometry>
        </mxCell>
        <mxCell id="7-RdfV6hXrTTN9gbZNvn-27" value="1" style="whiteSpace=wrap;html=1;aspect=fixed;" vertex="1" parent="1">
          <mxGeometry x="610" y="220" width="40" height="40" as="geometry" />
        </mxCell>
        <mxCell id="7-RdfV6hXrTTN9gbZNvn-28" value="2" style="whiteSpace=wrap;html=1;aspect=fixed;" vertex="1" parent="1">
          <mxGeometry x="650" y="220" width="40" height="40" as="geometry" />
        </mxCell>
        <mxCell id="7-RdfV6hXrTTN9gbZNvn-29" value="3" style="whiteSpace=wrap;html=1;aspect=fixed;" vertex="1" parent="1">
          <mxGeometry x="690" y="220" width="40" height="40" as="geometry" />
        </mxCell>
        <mxCell id="7-RdfV6hXrTTN9gbZNvn-30" value="4" style="whiteSpace=wrap;html=1;aspect=fixed;" vertex="1" parent="1">
          <mxGeometry x="730" y="220" width="40" height="40" as="geometry" />
        </mxCell>
        <mxCell id="7-RdfV6hXrTTN9gbZNvn-32" value="5" style="whiteSpace=wrap;html=1;aspect=fixed;" vertex="1" parent="1">
          <mxGeometry x="610" y="310" width="40" height="40" as="geometry" />
        </mxCell>
        <mxCell id="7-RdfV6hXrTTN9gbZNvn-33" value="6" style="whiteSpace=wrap;html=1;aspect=fixed;" vertex="1" parent="1">
          <mxGeometry x="650" y="310" width="40" height="40" as="geometry" />
        </mxCell>
        <mxCell id="7-RdfV6hXrTTN9gbZNvn-34" value="7" style="whiteSpace=wrap;html=1;aspect=fixed;" vertex="1" parent="1">
          <mxGeometry x="690" y="310" width="40" height="40" as="geometry" />
        </mxCell>
        <mxCell id="7-RdfV6hXrTTN9gbZNvn-35" value="8" style="whiteSpace=wrap;html=1;aspect=fixed;" vertex="1" parent="1">
          <mxGeometry x="730" y="310" width="40" height="40" as="geometry" />
        </mxCell>
        <mxCell id="7-RdfV6hXrTTN9gbZNvn-36" value="" style="endArrow=classic;startArrow=classic;html=1;rounded=0;fillColor=#ffe6cc;strokeColor=#d79b00;" edge="1" parent="1">
          <mxGeometry width="50" height="50" relative="1" as="geometry">
            <mxPoint x="610" y="180" as="sourcePoint" />
            <mxPoint x="770" y="180" as="targetPoint" />
          </mxGeometry>
        </mxCell>
        <mxCell id="7-RdfV6hXrTTN9gbZNvn-37" value="" style="endArrow=classic;startArrow=classic;html=1;rounded=0;fillColor=#f8cecc;strokeColor=#b85450;" edge="1" parent="1">
          <mxGeometry width="50" height="50" relative="1" as="geometry">
            <mxPoint x="570" y="350" as="sourcePoint" />
            <mxPoint x="570" y="220" as="targetPoint" />
          </mxGeometry>
        </mxCell>
        <mxCell id="7-RdfV6hXrTTN9gbZNvn-38" value="&lt;b&gt;Stack&lt;/b&gt;" style="text;html=1;align=center;verticalAlign=middle;whiteSpace=wrap;rounded=0;" vertex="1" parent="1">
          <mxGeometry x="440" y="250" width="60" height="30" as="geometry" />
        </mxCell>
        <mxCell id="7-RdfV6hXrTTN9gbZNvn-39" value="" style="endArrow=classic;html=1;rounded=0;" edge="1" parent="1">
          <mxGeometry width="50" height="50" relative="1" as="geometry">
            <mxPoint x="430" y="280" as="sourcePoint" />
            <mxPoint x="510" y="280" as="targetPoint" />
          </mxGeometry>
        </mxCell>
        <mxCell id="7-RdfV6hXrTTN9gbZNvn-40" value="&lt;font color=&quot;#ff0000&quot;&gt;seq_len_q&lt;/font&gt;" style="text;html=1;align=center;verticalAlign=middle;whiteSpace=wrap;rounded=0;" vertex="1" parent="1">
          <mxGeometry x="520" y="360" width="60" height="30" as="geometry" />
        </mxCell>
        <mxCell id="7-RdfV6hXrTTN9gbZNvn-41" value="&lt;font color=&quot;#cc6600&quot;&gt;size of the embedding&lt;/font&gt;" style="text;html=1;align=center;verticalAlign=middle;whiteSpace=wrap;rounded=0;" vertex="1" parent="1">
          <mxGeometry x="650" y="130" width="60" height="30" as="geometry" />
        </mxCell>
        <mxCell id="7-RdfV6hXrTTN9gbZNvn-42" value="&lt;b style=&quot;font-size: 17px;&quot;&gt;&lt;font color=&quot;#00ffff&quot;&gt;Q&lt;/font&gt;&lt;/b&gt;" style="text;html=1;align=center;verticalAlign=middle;whiteSpace=wrap;rounded=0;" vertex="1" parent="1">
          <mxGeometry x="750" y="370" width="60" height="30" as="geometry" />
        </mxCell>
        <mxCell id="7-RdfV6hXrTTN9gbZNvn-43" value="11" style="whiteSpace=wrap;html=1;aspect=fixed;" vertex="1" parent="1">
          <mxGeometry x="220" y="510" width="40" height="40" as="geometry" />
        </mxCell>
        <mxCell id="7-RdfV6hXrTTN9gbZNvn-115" style="edgeStyle=orthogonalEdgeStyle;rounded=0;orthogonalLoop=1;jettySize=auto;html=1;entryX=0.5;entryY=0;entryDx=0;entryDy=0;" edge="1" parent="1" source="7-RdfV6hXrTTN9gbZNvn-44" target="7-RdfV6hXrTTN9gbZNvn-81">
          <mxGeometry relative="1" as="geometry" />
        </mxCell>
        <mxCell id="7-RdfV6hXrTTN9gbZNvn-44" value="14" style="whiteSpace=wrap;html=1;aspect=fixed;" vertex="1" parent="1">
          <mxGeometry x="220" y="630" width="40" height="40" as="geometry" />
        </mxCell>
        <mxCell id="7-RdfV6hXrTTN9gbZNvn-45" value="12" style="whiteSpace=wrap;html=1;aspect=fixed;" vertex="1" parent="1">
          <mxGeometry x="220" y="550" width="40" height="40" as="geometry" />
        </mxCell>
        <mxCell id="7-RdfV6hXrTTN9gbZNvn-46" value="13" style="whiteSpace=wrap;html=1;aspect=fixed;" vertex="1" parent="1">
          <mxGeometry x="220" y="590" width="40" height="40" as="geometry" />
        </mxCell>
        <mxCell id="7-RdfV6hXrTTN9gbZNvn-47" value="21" style="whiteSpace=wrap;html=1;aspect=fixed;" vertex="1" parent="1">
          <mxGeometry x="300" y="509" width="40" height="40" as="geometry" />
        </mxCell>
        <mxCell id="7-RdfV6hXrTTN9gbZNvn-116" style="edgeStyle=orthogonalEdgeStyle;rounded=0;orthogonalLoop=1;jettySize=auto;html=1;entryX=0.5;entryY=0;entryDx=0;entryDy=0;" edge="1" parent="1" source="7-RdfV6hXrTTN9gbZNvn-48" target="7-RdfV6hXrTTN9gbZNvn-85">
          <mxGeometry relative="1" as="geometry" />
        </mxCell>
        <mxCell id="7-RdfV6hXrTTN9gbZNvn-48" value="24" style="whiteSpace=wrap;html=1;aspect=fixed;" vertex="1" parent="1">
          <mxGeometry x="300" y="629" width="40" height="40" as="geometry" />
        </mxCell>
        <mxCell id="7-RdfV6hXrTTN9gbZNvn-49" value="22" style="whiteSpace=wrap;html=1;aspect=fixed;" vertex="1" parent="1">
          <mxGeometry x="300" y="549" width="40" height="40" as="geometry" />
        </mxCell>
        <mxCell id="7-RdfV6hXrTTN9gbZNvn-50" value="23" style="whiteSpace=wrap;html=1;aspect=fixed;" vertex="1" parent="1">
          <mxGeometry x="300" y="589" width="40" height="40" as="geometry" />
        </mxCell>
        <mxCell id="7-RdfV6hXrTTN9gbZNvn-51" value="I" style="text;html=1;align=center;verticalAlign=middle;whiteSpace=wrap;rounded=0;" vertex="1" parent="1">
          <mxGeometry x="210" y="470" width="60" height="30" as="geometry" />
        </mxCell>
        <mxCell id="7-RdfV6hXrTTN9gbZNvn-52" value="am" style="text;html=1;align=center;verticalAlign=middle;whiteSpace=wrap;rounded=0;" vertex="1" parent="1">
          <mxGeometry x="290" y="470" width="60" height="30" as="geometry" />
        </mxCell>
        <mxCell id="7-RdfV6hXrTTN9gbZNvn-53" value="I am happy" style="text;html=1;align=center;verticalAlign=middle;whiteSpace=wrap;rounded=0;" vertex="1" parent="1">
          <mxGeometry x="10" y="569" width="70" height="16" as="geometry" />
        </mxCell>
        <mxCell id="7-RdfV6hXrTTN9gbZNvn-54" value="&lt;b&gt;Embedding&lt;/b&gt;" style="text;html=1;align=center;verticalAlign=middle;whiteSpace=wrap;rounded=0;" vertex="1" parent="1">
          <mxGeometry x="110" y="539" width="60" height="30" as="geometry" />
        </mxCell>
        <mxCell id="7-RdfV6hXrTTN9gbZNvn-55" value="" style="endArrow=classic;html=1;rounded=0;startSize=6;endSize=8;arcSize=20;" edge="1" parent="1">
          <mxGeometry width="50" height="50" relative="1" as="geometry">
            <mxPoint x="100" y="580" as="sourcePoint" />
            <mxPoint x="180" y="580" as="targetPoint" />
          </mxGeometry>
        </mxCell>
        <mxCell id="7-RdfV6hXrTTN9gbZNvn-56" value="&lt;b&gt;Stack&lt;/b&gt;" style="text;html=1;align=center;verticalAlign=middle;whiteSpace=wrap;rounded=0;" vertex="1" parent="1">
          <mxGeometry x="490" y="550" width="60" height="30" as="geometry" />
        </mxCell>
        <mxCell id="7-RdfV6hXrTTN9gbZNvn-57" value="" style="endArrow=classic;html=1;rounded=0;endSize=8;" edge="1" parent="1">
          <mxGeometry width="50" height="50" relative="1" as="geometry">
            <mxPoint x="490" y="584" as="sourcePoint" />
            <mxPoint x="570" y="584" as="targetPoint" />
          </mxGeometry>
        </mxCell>
        <mxCell id="7-RdfV6hXrTTN9gbZNvn-59" value="31" style="whiteSpace=wrap;html=1;aspect=fixed;" vertex="1" parent="1">
          <mxGeometry x="390" y="510" width="40" height="40" as="geometry" />
        </mxCell>
        <mxCell id="7-RdfV6hXrTTN9gbZNvn-117" style="edgeStyle=orthogonalEdgeStyle;rounded=0;orthogonalLoop=1;jettySize=auto;html=1;exitX=0.5;exitY=1;exitDx=0;exitDy=0;entryX=0.5;entryY=0;entryDx=0;entryDy=0;" edge="1" parent="1" source="7-RdfV6hXrTTN9gbZNvn-60" target="7-RdfV6hXrTTN9gbZNvn-93">
          <mxGeometry relative="1" as="geometry" />
        </mxCell>
        <mxCell id="7-RdfV6hXrTTN9gbZNvn-60" value="34" style="whiteSpace=wrap;html=1;aspect=fixed;" vertex="1" parent="1">
          <mxGeometry x="390" y="630" width="40" height="40" as="geometry" />
        </mxCell>
        <mxCell id="7-RdfV6hXrTTN9gbZNvn-61" value="32" style="whiteSpace=wrap;html=1;aspect=fixed;" vertex="1" parent="1">
          <mxGeometry x="390" y="550" width="40" height="40" as="geometry" />
        </mxCell>
        <mxCell id="7-RdfV6hXrTTN9gbZNvn-62" value="33" style="whiteSpace=wrap;html=1;aspect=fixed;" vertex="1" parent="1">
          <mxGeometry x="390" y="590" width="40" height="40" as="geometry" />
        </mxCell>
        <mxCell id="7-RdfV6hXrTTN9gbZNvn-63" value="happy" style="text;html=1;align=center;verticalAlign=middle;whiteSpace=wrap;rounded=0;" vertex="1" parent="1">
          <mxGeometry x="380" y="470" width="60" height="30" as="geometry" />
        </mxCell>
        <mxCell id="7-RdfV6hXrTTN9gbZNvn-64" value="11" style="whiteSpace=wrap;html=1;aspect=fixed;" vertex="1" parent="1">
          <mxGeometry x="630" y="520" width="40" height="40" as="geometry" />
        </mxCell>
        <mxCell id="7-RdfV6hXrTTN9gbZNvn-65" value="12" style="whiteSpace=wrap;html=1;aspect=fixed;" vertex="1" parent="1">
          <mxGeometry x="670" y="520" width="40" height="40" as="geometry" />
        </mxCell>
        <mxCell id="7-RdfV6hXrTTN9gbZNvn-66" value="13" style="whiteSpace=wrap;html=1;aspect=fixed;" vertex="1" parent="1">
          <mxGeometry x="710" y="520" width="40" height="40" as="geometry" />
        </mxCell>
        <mxCell id="7-RdfV6hXrTTN9gbZNvn-67" value="14" style="whiteSpace=wrap;html=1;aspect=fixed;" vertex="1" parent="1">
          <mxGeometry x="750" y="520" width="40" height="40" as="geometry" />
        </mxCell>
        <mxCell id="7-RdfV6hXrTTN9gbZNvn-68" value="21" style="whiteSpace=wrap;html=1;aspect=fixed;" vertex="1" parent="1">
          <mxGeometry x="630" y="574" width="40" height="40" as="geometry" />
        </mxCell>
        <mxCell id="7-RdfV6hXrTTN9gbZNvn-69" value="22" style="whiteSpace=wrap;html=1;aspect=fixed;" vertex="1" parent="1">
          <mxGeometry x="670" y="574" width="40" height="40" as="geometry" />
        </mxCell>
        <mxCell id="7-RdfV6hXrTTN9gbZNvn-70" value="23" style="whiteSpace=wrap;html=1;aspect=fixed;" vertex="1" parent="1">
          <mxGeometry x="710" y="574" width="40" height="40" as="geometry" />
        </mxCell>
        <mxCell id="7-RdfV6hXrTTN9gbZNvn-71" value="24" style="whiteSpace=wrap;html=1;aspect=fixed;" vertex="1" parent="1">
          <mxGeometry x="750" y="574" width="40" height="40" as="geometry" />
        </mxCell>
        <mxCell id="7-RdfV6hXrTTN9gbZNvn-72" value="31" style="whiteSpace=wrap;html=1;aspect=fixed;" vertex="1" parent="1">
          <mxGeometry x="630" y="630" width="40" height="40" as="geometry" />
        </mxCell>
        <mxCell id="7-RdfV6hXrTTN9gbZNvn-73" value="32" style="whiteSpace=wrap;html=1;aspect=fixed;" vertex="1" parent="1">
          <mxGeometry x="670" y="630" width="40" height="40" as="geometry" />
        </mxCell>
        <mxCell id="7-RdfV6hXrTTN9gbZNvn-74" value="33" style="whiteSpace=wrap;html=1;aspect=fixed;" vertex="1" parent="1">
          <mxGeometry x="710" y="630" width="40" height="40" as="geometry" />
        </mxCell>
        <mxCell id="7-RdfV6hXrTTN9gbZNvn-75" value="34" style="whiteSpace=wrap;html=1;aspect=fixed;" vertex="1" parent="1">
          <mxGeometry x="750" y="630" width="40" height="40" as="geometry" />
        </mxCell>
        <mxCell id="7-RdfV6hXrTTN9gbZNvn-76" value="" style="endArrow=classic;startArrow=classic;html=1;rounded=0;fillColor=#dae8fc;strokeColor=#6c8ebf;" edge="1" parent="1">
          <mxGeometry width="50" height="50" relative="1" as="geometry">
            <mxPoint x="600" y="670" as="sourcePoint" />
            <mxPoint x="600" y="520" as="targetPoint" />
          </mxGeometry>
        </mxCell>
        <mxCell id="7-RdfV6hXrTTN9gbZNvn-77" value="" style="endArrow=classic;startArrow=classic;html=1;rounded=0;fillColor=#ffe6cc;strokeColor=#d79b00;" edge="1" parent="1">
          <mxGeometry width="50" height="50" relative="1" as="geometry">
            <mxPoint x="630" y="490" as="sourcePoint" />
            <mxPoint x="790" y="490" as="targetPoint" />
          </mxGeometry>
        </mxCell>
        <mxCell id="7-RdfV6hXrTTN9gbZNvn-78" value="&lt;font color=&quot;#cc6600&quot;&gt;size of the embedding&lt;/font&gt;" style="text;html=1;align=center;verticalAlign=middle;whiteSpace=wrap;rounded=0;" vertex="1" parent="1">
          <mxGeometry x="670" y="440" width="60" height="30" as="geometry" />
        </mxCell>
        <mxCell id="7-RdfV6hXrTTN9gbZNvn-79" value="&lt;font color=&quot;#0000ff&quot;&gt;seq_len_k&lt;/font&gt;" style="text;html=1;align=center;verticalAlign=middle;whiteSpace=wrap;rounded=0;" vertex="1" parent="1">
          <mxGeometry x="550" y="690" width="60" height="30" as="geometry" />
        </mxCell>
        <mxCell id="7-RdfV6hXrTTN9gbZNvn-80" value="&lt;b style=&quot;font-size: 17px;&quot;&gt;&lt;font color=&quot;#0066cc&quot;&gt;K&lt;/font&gt;&lt;/b&gt;" style="text;html=1;align=center;verticalAlign=middle;whiteSpace=wrap;rounded=0;" vertex="1" parent="1">
          <mxGeometry x="750" y="690" width="60" height="30" as="geometry" />
        </mxCell>
        <mxCell id="7-RdfV6hXrTTN9gbZNvn-81" value="11" style="whiteSpace=wrap;html=1;aspect=fixed;" vertex="1" parent="1">
          <mxGeometry x="220" y="830" width="40" height="40" as="geometry" />
        </mxCell>
        <mxCell id="7-RdfV6hXrTTN9gbZNvn-82" value="14" style="whiteSpace=wrap;html=1;aspect=fixed;" vertex="1" parent="1">
          <mxGeometry x="220" y="950" width="40" height="40" as="geometry" />
        </mxCell>
        <mxCell id="7-RdfV6hXrTTN9gbZNvn-83" value="12" style="whiteSpace=wrap;html=1;aspect=fixed;" vertex="1" parent="1">
          <mxGeometry x="220" y="870" width="40" height="40" as="geometry" />
        </mxCell>
        <mxCell id="7-RdfV6hXrTTN9gbZNvn-84" value="13" style="whiteSpace=wrap;html=1;aspect=fixed;" vertex="1" parent="1">
          <mxGeometry x="220" y="910" width="40" height="40" as="geometry" />
        </mxCell>
        <mxCell id="7-RdfV6hXrTTN9gbZNvn-85" value="21" style="whiteSpace=wrap;html=1;aspect=fixed;" vertex="1" parent="1">
          <mxGeometry x="300" y="829" width="40" height="40" as="geometry" />
        </mxCell>
        <mxCell id="7-RdfV6hXrTTN9gbZNvn-86" value="24" style="whiteSpace=wrap;html=1;aspect=fixed;" vertex="1" parent="1">
          <mxGeometry x="300" y="949" width="40" height="40" as="geometry" />
        </mxCell>
        <mxCell id="7-RdfV6hXrTTN9gbZNvn-87" value="22" style="whiteSpace=wrap;html=1;aspect=fixed;" vertex="1" parent="1">
          <mxGeometry x="300" y="869" width="40" height="40" as="geometry" />
        </mxCell>
        <mxCell id="7-RdfV6hXrTTN9gbZNvn-88" value="23" style="whiteSpace=wrap;html=1;aspect=fixed;" vertex="1" parent="1">
          <mxGeometry x="300" y="909" width="40" height="40" as="geometry" />
        </mxCell>
        <mxCell id="7-RdfV6hXrTTN9gbZNvn-91" value="&lt;b&gt;Stack&lt;/b&gt;" style="text;html=1;align=center;verticalAlign=middle;whiteSpace=wrap;rounded=0;" vertex="1" parent="1">
          <mxGeometry x="500" y="875" width="60" height="30" as="geometry" />
        </mxCell>
        <mxCell id="7-RdfV6hXrTTN9gbZNvn-92" value="" style="endArrow=classic;html=1;rounded=0;endSize=8;" edge="1" parent="1">
          <mxGeometry width="50" height="50" relative="1" as="geometry">
            <mxPoint x="490" y="904" as="sourcePoint" />
            <mxPoint x="570" y="904" as="targetPoint" />
          </mxGeometry>
        </mxCell>
        <mxCell id="7-RdfV6hXrTTN9gbZNvn-93" value="31" style="whiteSpace=wrap;html=1;aspect=fixed;" vertex="1" parent="1">
          <mxGeometry x="390" y="830" width="40" height="40" as="geometry" />
        </mxCell>
        <mxCell id="7-RdfV6hXrTTN9gbZNvn-94" value="34" style="whiteSpace=wrap;html=1;aspect=fixed;" vertex="1" parent="1">
          <mxGeometry x="390" y="950" width="40" height="40" as="geometry" />
        </mxCell>
        <mxCell id="7-RdfV6hXrTTN9gbZNvn-95" value="32" style="whiteSpace=wrap;html=1;aspect=fixed;" vertex="1" parent="1">
          <mxGeometry x="390" y="870" width="40" height="40" as="geometry" />
        </mxCell>
        <mxCell id="7-RdfV6hXrTTN9gbZNvn-96" value="33" style="whiteSpace=wrap;html=1;aspect=fixed;" vertex="1" parent="1">
          <mxGeometry x="390" y="910" width="40" height="40" as="geometry" />
        </mxCell>
        <mxCell id="7-RdfV6hXrTTN9gbZNvn-98" value="11" style="whiteSpace=wrap;html=1;aspect=fixed;" vertex="1" parent="1">
          <mxGeometry x="630" y="840" width="40" height="40" as="geometry" />
        </mxCell>
        <mxCell id="7-RdfV6hXrTTN9gbZNvn-99" value="12" style="whiteSpace=wrap;html=1;aspect=fixed;" vertex="1" parent="1">
          <mxGeometry x="670" y="840" width="40" height="40" as="geometry" />
        </mxCell>
        <mxCell id="7-RdfV6hXrTTN9gbZNvn-100" value="13" style="whiteSpace=wrap;html=1;aspect=fixed;" vertex="1" parent="1">
          <mxGeometry x="710" y="840" width="40" height="40" as="geometry" />
        </mxCell>
        <mxCell id="7-RdfV6hXrTTN9gbZNvn-101" value="14" style="whiteSpace=wrap;html=1;aspect=fixed;" vertex="1" parent="1">
          <mxGeometry x="750" y="840" width="40" height="40" as="geometry" />
        </mxCell>
        <mxCell id="7-RdfV6hXrTTN9gbZNvn-102" value="21" style="whiteSpace=wrap;html=1;aspect=fixed;" vertex="1" parent="1">
          <mxGeometry x="630" y="894" width="40" height="40" as="geometry" />
        </mxCell>
        <mxCell id="7-RdfV6hXrTTN9gbZNvn-103" value="22" style="whiteSpace=wrap;html=1;aspect=fixed;" vertex="1" parent="1">
          <mxGeometry x="670" y="894" width="40" height="40" as="geometry" />
        </mxCell>
        <mxCell id="7-RdfV6hXrTTN9gbZNvn-104" value="23" style="whiteSpace=wrap;html=1;aspect=fixed;" vertex="1" parent="1">
          <mxGeometry x="710" y="894" width="40" height="40" as="geometry" />
        </mxCell>
        <mxCell id="7-RdfV6hXrTTN9gbZNvn-105" value="24" style="whiteSpace=wrap;html=1;aspect=fixed;" vertex="1" parent="1">
          <mxGeometry x="750" y="894" width="40" height="40" as="geometry" />
        </mxCell>
        <mxCell id="7-RdfV6hXrTTN9gbZNvn-106" value="31" style="whiteSpace=wrap;html=1;aspect=fixed;" vertex="1" parent="1">
          <mxGeometry x="630" y="950" width="40" height="40" as="geometry" />
        </mxCell>
        <mxCell id="7-RdfV6hXrTTN9gbZNvn-107" value="32" style="whiteSpace=wrap;html=1;aspect=fixed;" vertex="1" parent="1">
          <mxGeometry x="670" y="950" width="40" height="40" as="geometry" />
        </mxCell>
        <mxCell id="7-RdfV6hXrTTN9gbZNvn-108" value="33" style="whiteSpace=wrap;html=1;aspect=fixed;" vertex="1" parent="1">
          <mxGeometry x="710" y="950" width="40" height="40" as="geometry" />
        </mxCell>
        <mxCell id="7-RdfV6hXrTTN9gbZNvn-109" value="34" style="whiteSpace=wrap;html=1;aspect=fixed;" vertex="1" parent="1">
          <mxGeometry x="750" y="950" width="40" height="40" as="geometry" />
        </mxCell>
        <mxCell id="7-RdfV6hXrTTN9gbZNvn-110" value="" style="endArrow=classic;startArrow=classic;html=1;rounded=0;fillColor=#dae8fc;strokeColor=#6c8ebf;" edge="1" parent="1">
          <mxGeometry width="50" height="50" relative="1" as="geometry">
            <mxPoint x="600" y="990" as="sourcePoint" />
            <mxPoint x="600" y="840" as="targetPoint" />
          </mxGeometry>
        </mxCell>
        <mxCell id="7-RdfV6hXrTTN9gbZNvn-111" value="" style="endArrow=classic;startArrow=classic;html=1;rounded=0;fillColor=#ffe6cc;strokeColor=#d79b00;" edge="1" parent="1">
          <mxGeometry width="50" height="50" relative="1" as="geometry">
            <mxPoint x="630" y="810" as="sourcePoint" />
            <mxPoint x="790" y="810" as="targetPoint" />
          </mxGeometry>
        </mxCell>
        <mxCell id="7-RdfV6hXrTTN9gbZNvn-112" value="&lt;font color=&quot;#cc6600&quot;&gt;size of the embedding&lt;/font&gt;" style="text;html=1;align=center;verticalAlign=middle;whiteSpace=wrap;rounded=0;" vertex="1" parent="1">
          <mxGeometry x="670" y="760" width="60" height="30" as="geometry" />
        </mxCell>
        <mxCell id="7-RdfV6hXrTTN9gbZNvn-113" value="&lt;font color=&quot;#0000ff&quot;&gt;seq_len_v&lt;/font&gt;" style="text;html=1;align=center;verticalAlign=middle;whiteSpace=wrap;rounded=0;" vertex="1" parent="1">
          <mxGeometry x="550" y="1010" width="60" height="30" as="geometry" />
        </mxCell>
        <mxCell id="7-RdfV6hXrTTN9gbZNvn-114" value="&lt;b style=&quot;font-size: 17px;&quot;&gt;&lt;font color=&quot;#6600cc&quot;&gt;V&lt;/font&gt;&lt;/b&gt;" style="text;html=1;align=center;verticalAlign=middle;whiteSpace=wrap;rounded=0;" vertex="1" parent="1">
          <mxGeometry x="750" y="1010" width="60" height="30" as="geometry" />
        </mxCell>
        <mxCell id="7-RdfV6hXrTTN9gbZNvn-118" value="Generally the same" style="text;html=1;align=center;verticalAlign=middle;resizable=0;points=[];autosize=1;strokeColor=none;fillColor=none;" vertex="1" parent="1">
          <mxGeometry x="90" y="740" width="130" height="30" as="geometry" />
        </mxCell>
        <mxCell id="7-RdfV6hXrTTN9gbZNvn-119" value="d = 4&lt;div&gt;seq_len_q = 2&lt;/div&gt;&lt;div&gt;seq_len_k = 3&lt;/div&gt;&lt;div&gt;seq_len_v = seq_len_k&lt;/div&gt;" style="text;html=1;align=left;verticalAlign=middle;whiteSpace=wrap;rounded=0;" vertex="1" parent="1">
          <mxGeometry x="40" y="70" width="140" height="70" as="geometry" />
        </mxCell>
      </root>
    </mxGraphModel>
  </diagram>
</mxfile>
